# xmcd CD database file
#
# Track frame offsets:
#	150
#	13572
#	32331
#	60178
#	90541
#	116288
#	145916
#	166158
#	189431
#	206144
#	229818
#	247625
#	272275
#	295816
#	326704
#
# Disc length: 4720 seconds
#
# Revision: 0
# Processed by: cddbd v1.5.2PL0 Copyright (c) Steve Scherf et al.
# Submitted via: CDex 1.70beta2
#
DISCID=b8126e0f
DTITLE=DzEM - the best
DYEAR=1900
DGENRE=Blues
TTITLE0=D﾿em- 1989- Najemnik - Kaczor coﾜ ty zrobiﾳ
TTITLE1=D﾿em- 1989- Najemnik - Harlej m￳j
TTITLE2=D﾿em- 1989- Najemnik - Wehikuﾳ czasu
TTITLE3=D﾿em- 1991- Detox - Detox
TTITLE4=D﾿em- 1991- Detox - Sen o Victorii
TTITLE5=D﾿em- 1991- Detox - List do M.
TTITLE6=D﾿em- 1991- Detox - Jak malowany ptak
TTITLE7=D﾿em- 1985- Cegﾳa - Whisky
TTITLE8=D﾿em- 1992- The Singles - Wok￳l sami lunatycy
TTITLE9=D﾿em- 1985- Cegﾳa - Czerwony jak cegla
TTITLE10=D﾿em- 1992- The Singles - Ostatni ci￪﾿ki rok
TTITLE11=D﾿em- 1992- The Singles - Skazany na bluesa
TTITLE12=D﾿em- 1992- The Singles - Maﾳa aleja r￳﾿
TTITLE13=D﾿em- 1993- Autsajder - Autsajder
TTITLE14=D﾿em- 1992- The Singles - Paw
EXTD=
EXTT0=
EXTT1=
EXTT2=
EXTT3=
EXTT4=
EXTT5=
EXTT6=
EXTT7=
EXTT8=
EXTT9=
EXTT10=
EXTT11=
EXTT12=
EXTT13=
EXTT14=
PLAYORDER=
